<mxfile host="65bd71144e">
    <diagram id="WKOMtR6ws4Xo5pKhI-JK" name="Page-1">
        <mxGraphModel dx="542" dy="578" grid="1" gridSize="10" guides="1" tooltips="1" connect="1" arrows="1" fold="1" page="1" pageScale="1" pageWidth="850" pageHeight="1100" math="0" shadow="0">
            <root>
                <mxCell id="0"/>
                <mxCell id="1" parent="0"/>
                <mxCell id="TJnBre5quvr3i6Oq31VL-120" value="" style="rounded=0;whiteSpace=wrap;html=1;labelBackgroundColor=#FFFFFF;fontSize=15;strokeWidth=1;" parent="1" vertex="1">
                    <mxGeometry x="160" y="3140" width="540" height="330" as="geometry"/>
                </mxCell>
                <mxCell id="TJnBre5quvr3i6Oq31VL-147" value="" style="rounded=0;whiteSpace=wrap;html=1;labelBackgroundColor=#FFFFFF;fontSize=15;strokeWidth=1;" parent="1" vertex="1">
                    <mxGeometry x="160" y="3740" width="540" height="200" as="geometry"/>
                </mxCell>
                <mxCell id="TJnBre5quvr3i6Oq31VL-146" style="edgeStyle=orthogonalEdgeStyle;rounded=0;orthogonalLoop=1;jettySize=auto;html=1;entryX=0.5;entryY=0;entryDx=0;entryDy=0;fontSize=12;exitX=1;exitY=0.5;exitDx=0;exitDy=0;dashed=1;" parent="1" source="TJnBre5quvr3i6Oq31VL-140" target="TJnBre5quvr3i6Oq31VL-125" edge="1">
                    <mxGeometry relative="1" as="geometry"/>
                </mxCell>
                <mxCell id="TJnBre5quvr3i6Oq31VL-44" value="" style="rounded=0;whiteSpace=wrap;html=1;labelBackgroundColor=#FFFFFF;fontSize=15;strokeWidth=1;" parent="1" vertex="1">
                    <mxGeometry x="160" y="1410" width="540" height="380" as="geometry"/>
                </mxCell>
                <mxCell id="TJnBre5quvr3i6Oq31VL-43" value="" style="rounded=0;whiteSpace=wrap;html=1;labelBackgroundColor=#FFFFFF;fontSize=15;strokeWidth=1;" parent="1" vertex="1">
                    <mxGeometry x="160" y="1870" width="540" height="400" as="geometry"/>
                </mxCell>
                <mxCell id="zW4CEYZocvrgLDsc_zKP-5" value="" style="endArrow=none;dashed=1;html=1;rounded=0;exitX=0.5;exitY=0;exitDx=0;exitDy=0;" parent="1" source="zW4CEYZocvrgLDsc_zKP-62" target="zW4CEYZocvrgLDsc_zKP-6" edge="1">
                    <mxGeometry width="50" height="50" relative="1" as="geometry">
                        <mxPoint x="440" y="1130" as="sourcePoint"/>
                        <mxPoint x="440" y="190" as="targetPoint"/>
                    </mxGeometry>
                </mxCell>
                <mxCell id="zW4CEYZocvrgLDsc_zKP-6" value="1. &lt;br&gt;Lottery is created" style="rounded=1;whiteSpace=wrap;html=1;" parent="1" vertex="1">
                    <mxGeometry x="360" y="130" width="160" height="60" as="geometry"/>
                </mxCell>
                <mxCell id="zW4CEYZocvrgLDsc_zKP-12" value="2.&lt;br&gt;Participation period starts" style="rounded=1;whiteSpace=wrap;html=1;" parent="1" vertex="1">
                    <mxGeometry x="360" y="310" width="160" height="60" as="geometry"/>
                </mxCell>
                <mxCell id="zW4CEYZocvrgLDsc_zKP-13" value="3. &lt;br&gt;Participation period ends&lt;br&gt;Preparation period starts" style="rounded=1;whiteSpace=wrap;html=1;" parent="1" vertex="1">
                    <mxGeometry x="360" y="450" width="160" height="60" as="geometry"/>
                </mxCell>
                <mxCell id="zW4CEYZocvrgLDsc_zKP-15" style="edgeStyle=orthogonalEdgeStyle;rounded=0;orthogonalLoop=1;jettySize=auto;html=1;" parent="1" source="zW4CEYZocvrgLDsc_zKP-14" edge="1">
                    <mxGeometry relative="1" as="geometry">
                        <mxPoint x="440" y="410" as="targetPoint"/>
                    </mxGeometry>
                </mxCell>
                <mxCell id="zW4CEYZocvrgLDsc_zKP-16" value="Blockchain TX" style="edgeLabel;html=1;align=center;verticalAlign=middle;resizable=0;points=[];" parent="zW4CEYZocvrgLDsc_zKP-15" vertex="1" connectable="0">
                    <mxGeometry x="-0.2286" y="-2" relative="1" as="geometry">
                        <mxPoint x="-3" as="offset"/>
                    </mxGeometry>
                </mxCell>
                <mxCell id="zW4CEYZocvrgLDsc_zKP-14" value="Anyone can register as a participant.&lt;br&gt;1 ticket (spaceship) is minted and gets sent to the participant" style="whiteSpace=wrap;html=1;rounded=1;" parent="1" vertex="1">
                    <mxGeometry x="60" y="370" width="230" height="80" as="geometry"/>
                </mxCell>
                <mxCell id="zW4CEYZocvrgLDsc_zKP-18" value="4.&lt;br&gt;Preparation period ends" style="rounded=1;whiteSpace=wrap;html=1;" parent="1" vertex="1">
                    <mxGeometry x="360" y="590" width="160" height="60" as="geometry"/>
                </mxCell>
                <mxCell id="zW4CEYZocvrgLDsc_zKP-20" style="edgeStyle=orthogonalEdgeStyle;rounded=0;orthogonalLoop=1;jettySize=auto;html=1;" parent="1" source="zW4CEYZocvrgLDsc_zKP-19" edge="1">
                    <mxGeometry relative="1" as="geometry">
                        <mxPoint x="440" y="550" as="targetPoint"/>
                    </mxGeometry>
                </mxCell>
                <mxCell id="zW4CEYZocvrgLDsc_zKP-21" value="Blockchain TX" style="edgeLabel;html=1;align=center;verticalAlign=middle;resizable=0;points=[];" parent="zW4CEYZocvrgLDsc_zKP-20" vertex="1" connectable="0">
                    <mxGeometry x="-0.2933" y="1" relative="1" as="geometry">
                        <mxPoint as="offset"/>
                    </mxGeometry>
                </mxCell>
                <mxCell id="zW4CEYZocvrgLDsc_zKP-19" value="Registered participants can purchase boosts &lt;br&gt;(not in V1)" style="whiteSpace=wrap;html=1;rounded=1;" parent="1" vertex="1">
                    <mxGeometry x="60" y="510" width="180" height="80" as="geometry"/>
                </mxCell>
                <mxCell id="TJnBre5quvr3i6Oq31VL-62" value="" style="edgeStyle=orthogonalEdgeStyle;rounded=0;orthogonalLoop=1;jettySize=auto;html=1;fontSize=11;" parent="1" source="zW4CEYZocvrgLDsc_zKP-23" target="TJnBre5quvr3i6Oq31VL-61" edge="1">
                    <mxGeometry relative="1" as="geometry"/>
                </mxCell>
                <mxCell id="TJnBre5quvr3i6Oq31VL-64" style="edgeStyle=orthogonalEdgeStyle;rounded=0;orthogonalLoop=1;jettySize=auto;html=1;exitX=0;exitY=0.5;exitDx=0;exitDy=0;entryX=1;entryY=0.5;entryDx=0;entryDy=0;fontSize=11;" parent="1" source="zW4CEYZocvrgLDsc_zKP-23" target="TJnBre5quvr3i6Oq31VL-63" edge="1">
                    <mxGeometry relative="1" as="geometry"/>
                </mxCell>
                <mxCell id="TJnBre5quvr3i6Oq31VL-66" style="edgeStyle=orthogonalEdgeStyle;rounded=0;orthogonalLoop=1;jettySize=auto;html=1;exitX=0.5;exitY=1;exitDx=0;exitDy=0;fontSize=11;" parent="1" source="zW4CEYZocvrgLDsc_zKP-23" target="TJnBre5quvr3i6Oq31VL-65" edge="1">
                    <mxGeometry relative="1" as="geometry"/>
                </mxCell>
                <mxCell id="zW4CEYZocvrgLDsc_zKP-23" value="Lottery&lt;br&gt;constructor()" style="rounded=0;whiteSpace=wrap;html=1;" parent="1" vertex="1">
                    <mxGeometry x="365" y="1590" width="120" height="60" as="geometry"/>
                </mxCell>
                <mxCell id="zW4CEYZocvrgLDsc_zKP-24" style="edgeStyle=orthogonalEdgeStyle;rounded=0;orthogonalLoop=1;jettySize=auto;html=1;entryX=0.5;entryY=0;entryDx=0;entryDy=0;" parent="1" source="zW4CEYZocvrgLDsc_zKP-26" target="zW4CEYZocvrgLDsc_zKP-23" edge="1">
                    <mxGeometry relative="1" as="geometry"/>
                </mxCell>
                <mxCell id="zW4CEYZocvrgLDsc_zKP-25" value="Blockchain tx" style="edgeLabel;html=1;align=center;verticalAlign=middle;resizable=0;points=[];" parent="zW4CEYZocvrgLDsc_zKP-24" vertex="1" connectable="0">
                    <mxGeometry x="0.25" relative="1" as="geometry">
                        <mxPoint x="1" y="-11" as="offset"/>
                    </mxGeometry>
                </mxCell>
                <mxCell id="zW4CEYZocvrgLDsc_zKP-26" value="Lottery creators" style="ellipse;whiteSpace=wrap;html=1;" parent="1" vertex="1">
                    <mxGeometry x="365" y="1430" width="120" height="80" as="geometry"/>
                </mxCell>
                <mxCell id="zW4CEYZocvrgLDsc_zKP-27" value="Timeline in-depth" style="text;strokeColor=none;fillColor=none;html=1;fontSize=24;fontStyle=1;verticalAlign=middle;align=right;" parent="1" vertex="1">
                    <mxGeometry x="735" y="1330" width="100" height="40" as="geometry"/>
                </mxCell>
                <mxCell id="zW4CEYZocvrgLDsc_zKP-28" value="&lt;font style=&quot;font-size: 25px&quot;&gt;Timeline overview&lt;/font&gt;" style="text;strokeColor=none;fillColor=none;html=1;fontSize=24;fontStyle=1;verticalAlign=middle;align=right;rounded=1;strokeWidth=9;" parent="1" vertex="1">
                    <mxGeometry x="630" y="70" width="205" height="40" as="geometry"/>
                </mxCell>
                <mxCell id="zW4CEYZocvrgLDsc_zKP-33" style="edgeStyle=orthogonalEdgeStyle;rounded=0;orthogonalLoop=1;jettySize=auto;html=1;" parent="1" source="zW4CEYZocvrgLDsc_zKP-31" edge="1">
                    <mxGeometry relative="1" as="geometry">
                        <mxPoint x="440" y="255" as="targetPoint"/>
                    </mxGeometry>
                </mxCell>
                <mxCell id="TJnBre5quvr3i6Oq31VL-84" value="&lt;span style=&quot;font-size: 11px&quot;&gt;Blockchain TX&lt;/span&gt;" style="edgeLabel;html=1;align=center;verticalAlign=middle;resizable=0;points=[];fontSize=20;" parent="zW4CEYZocvrgLDsc_zKP-33" vertex="1" connectable="0">
                    <mxGeometry x="-0.1758" y="3" relative="1" as="geometry">
                        <mxPoint as="offset"/>
                    </mxGeometry>
                </mxCell>
                <mxCell id="zW4CEYZocvrgLDsc_zKP-31" value="&lt;span style=&quot;text-align: left ; font-family: &amp;#34;helvetica&amp;#34; ; background-color: rgb(255 , 255 , 255)&quot;&gt;&lt;font color=&quot;#000000&quot;&gt;- Fund the lottery with LINKS for Chainlink VRF computation&lt;/font&gt;&lt;/span&gt;" style="rounded=1;whiteSpace=wrap;html=1;strokeColor=default;" parent="1" vertex="1">
                    <mxGeometry x="75" y="215" width="200" height="80" as="geometry"/>
                </mxCell>
                <mxCell id="zW4CEYZocvrgLDsc_zKP-35" value="5.&lt;br&gt;Event 1 is now available" style="rounded=1;whiteSpace=wrap;html=1;" parent="1" vertex="1">
                    <mxGeometry x="350" y="730" width="180" height="60" as="geometry"/>
                </mxCell>
                <mxCell id="zW4CEYZocvrgLDsc_zKP-36" value="6.&lt;br&gt;Event 2 is now available" style="rounded=1;whiteSpace=wrap;html=1;" parent="1" vertex="1">
                    <mxGeometry x="350" y="870" width="180" height="60" as="geometry"/>
                </mxCell>
                <mxCell id="zW4CEYZocvrgLDsc_zKP-37" value="7.&lt;br&gt;Last event N is now available" style="rounded=1;whiteSpace=wrap;html=1;" parent="1" vertex="1">
                    <mxGeometry x="350" y="1010" width="180" height="60" as="geometry"/>
                </mxCell>
                <mxCell id="zW4CEYZocvrgLDsc_zKP-38" value="Events 1, 2, ...N" style="text;strokeColor=none;fillColor=none;html=1;fontSize=24;fontStyle=1;verticalAlign=middle;align=center;rounded=1;" parent="1" vertex="1">
                    <mxGeometry x="95" y="690" width="100" height="40" as="geometry"/>
                </mxCell>
                <mxCell id="zW4CEYZocvrgLDsc_zKP-49" style="edgeStyle=orthogonalEdgeStyle;rounded=0;orthogonalLoop=1;jettySize=auto;html=1;" parent="1" source="zW4CEYZocvrgLDsc_zKP-48" edge="1">
                    <mxGeometry relative="1" as="geometry">
                        <mxPoint x="440" y="830" as="targetPoint"/>
                    </mxGeometry>
                </mxCell>
                <mxCell id="TJnBre5quvr3i6Oq31VL-3" value="Blockchain TX" style="edgeLabel;html=1;align=center;verticalAlign=middle;resizable=0;points=[];" parent="zW4CEYZocvrgLDsc_zKP-49" vertex="1" connectable="0">
                    <mxGeometry x="-0.2" y="1" relative="1" as="geometry">
                        <mxPoint as="offset"/>
                    </mxGeometry>
                </mxCell>
                <mxCell id="zW4CEYZocvrgLDsc_zKP-48" value="Anyone triggers the event" style="rounded=1;whiteSpace=wrap;html=1;" parent="1" vertex="1">
                    <mxGeometry x="60" y="800" width="170" height="60" as="geometry"/>
                </mxCell>
                <mxCell id="zW4CEYZocvrgLDsc_zKP-51" style="edgeStyle=orthogonalEdgeStyle;rounded=0;orthogonalLoop=1;jettySize=auto;html=1;" parent="1" source="zW4CEYZocvrgLDsc_zKP-50" edge="1">
                    <mxGeometry relative="1" as="geometry">
                        <mxPoint x="440" y="970" as="targetPoint"/>
                    </mxGeometry>
                </mxCell>
                <mxCell id="TJnBre5quvr3i6Oq31VL-4" value="Blockchain TX" style="edgeLabel;html=1;align=center;verticalAlign=middle;resizable=0;points=[];" parent="zW4CEYZocvrgLDsc_zKP-51" vertex="1" connectable="0">
                    <mxGeometry x="-0.2762" y="3" relative="1" as="geometry">
                        <mxPoint as="offset"/>
                    </mxGeometry>
                </mxCell>
                <mxCell id="zW4CEYZocvrgLDsc_zKP-50" value="Anyone triggers the event" style="rounded=1;whiteSpace=wrap;html=1;" parent="1" vertex="1">
                    <mxGeometry x="60" y="940" width="170" height="60" as="geometry"/>
                </mxCell>
                <mxCell id="zW4CEYZocvrgLDsc_zKP-53" style="edgeStyle=orthogonalEdgeStyle;rounded=0;orthogonalLoop=1;jettySize=auto;html=1;" parent="1" source="zW4CEYZocvrgLDsc_zKP-52" edge="1">
                    <mxGeometry relative="1" as="geometry">
                        <mxPoint x="440" y="1110" as="targetPoint"/>
                        <Array as="points">
                            <mxPoint x="390" y="1110"/>
                            <mxPoint x="390" y="1110"/>
                        </Array>
                    </mxGeometry>
                </mxCell>
                <mxCell id="TJnBre5quvr3i6Oq31VL-5" value="Blockchain TX" style="edgeLabel;html=1;align=center;verticalAlign=middle;resizable=0;points=[];" parent="zW4CEYZocvrgLDsc_zKP-53" vertex="1" connectable="0">
                    <mxGeometry x="-0.3238" y="-2" relative="1" as="geometry">
                        <mxPoint as="offset"/>
                    </mxGeometry>
                </mxCell>
                <mxCell id="zW4CEYZocvrgLDsc_zKP-52" value="Anyone triggers the event" style="rounded=1;whiteSpace=wrap;html=1;" parent="1" vertex="1">
                    <mxGeometry x="60" y="1080" width="170" height="60" as="geometry"/>
                </mxCell>
                <mxCell id="zW4CEYZocvrgLDsc_zKP-60" style="edgeStyle=orthogonalEdgeStyle;rounded=0;orthogonalLoop=1;jettySize=auto;html=1;exitX=0.5;exitY=1;exitDx=0;exitDy=0;entryX=0;entryY=0.5;entryDx=0;entryDy=0;" parent="1" source="zW4CEYZocvrgLDsc_zKP-57" target="TJnBre5quvr3i6Oq31VL-132" edge="1">
                    <mxGeometry relative="1" as="geometry">
                        <mxPoint x="430" y="3345" as="targetPoint"/>
                        <Array as="points">
                            <mxPoint x="190" y="3215"/>
                            <mxPoint x="190" y="3305"/>
                        </Array>
                    </mxGeometry>
                </mxCell>
                <mxCell id="zW4CEYZocvrgLDsc_zKP-61" value="Blockchain tx" style="edgeLabel;html=1;align=center;verticalAlign=middle;resizable=0;points=[];" parent="zW4CEYZocvrgLDsc_zKP-60" vertex="1" connectable="0">
                    <mxGeometry x="0.2308" y="1" relative="1" as="geometry">
                        <mxPoint x="129" y="-1" as="offset"/>
                    </mxGeometry>
                </mxCell>
                <mxCell id="zW4CEYZocvrgLDsc_zKP-57" value="Anyone" style="ellipse;whiteSpace=wrap;html=1;rounded=1;" parent="1" vertex="1">
                    <mxGeometry x="390" y="3155" width="80" height="60" as="geometry"/>
                </mxCell>
                <mxCell id="zW4CEYZocvrgLDsc_zKP-62" value="8. Completion&lt;br&gt;&lt;ul&gt;&lt;li style=&quot;text-align: left&quot;&gt;Funds are released to the release address (charity, ...)&lt;/li&gt;&lt;li style=&quot;text-align: left&quot;&gt;Only winners keep their NFT image, others have a loser image (crashed spaceship)&lt;/li&gt;&lt;/ul&gt;" style="rounded=1;whiteSpace=wrap;html=1;" parent="1" vertex="1">
                    <mxGeometry x="307.5" y="1150" width="265" height="130" as="geometry"/>
                </mxCell>
                <mxCell id="TJnBre5quvr3i6Oq31VL-2" value="&lt;span style=&quot;background-color: rgb(255 , 255 , 255)&quot;&gt;&lt;span style=&quot;color: rgb(0 , 0 , 0) ; font-family: &amp;#34;helvetica&amp;#34; ; font-size: 12px ; font-style: normal ; font-weight: 400 ; letter-spacing: normal ; text-align: center ; text-indent: 0px ; text-transform: none ; word-spacing: 0px ; display: inline ; float: none&quot;&gt;&lt;div style=&quot;text-align: left&quot;&gt;&lt;ul&gt;&lt;li&gt;&lt;span style=&quot;text-align: left ; font-family: &amp;#34;helvetica&amp;#34; ; background-color: rgb(255 , 255 , 255)&quot;&gt;Marketing, tell ppl about the project&lt;/span&gt;&lt;/li&gt;&lt;li&gt;Nobody can register yet but ALL the lottery parameters are settled on-chain&lt;/li&gt;&lt;/ul&gt;&lt;/div&gt;&lt;/span&gt;&lt;/span&gt;" style="rounded=0;whiteSpace=wrap;html=1;" parent="1" vertex="1">
                    <mxGeometry x="465.5" y="210" width="274.5" height="80" as="geometry"/>
                </mxCell>
                <mxCell id="TJnBre5quvr3i6Oq31VL-7" value="&lt;span style=&quot;background-color: rgb(255 , 255 , 255)&quot;&gt;&lt;font color=&quot;#000000&quot;&gt;Waiting for block.timestamp to exceed Event 1 timestamp&lt;/font&gt;&lt;/span&gt;" style="rounded=0;whiteSpace=wrap;html=1;" parent="1" vertex="1">
                    <mxGeometry x="480" y="670" width="180" height="40" as="geometry"/>
                </mxCell>
                <mxCell id="TJnBre5quvr3i6Oq31VL-8" value="&lt;span style=&quot;background-color: rgb(255 , 255 , 255)&quot;&gt;&lt;font color=&quot;#000000&quot;&gt;Waiting for block.timestamp to exceed Event 2 timestamp&lt;/font&gt;&lt;/span&gt;" style="rounded=0;whiteSpace=wrap;html=1;" parent="1" vertex="1">
                    <mxGeometry x="480" y="810" width="180" height="40" as="geometry"/>
                </mxCell>
                <mxCell id="TJnBre5quvr3i6Oq31VL-9" value="&lt;span style=&quot;background-color: rgb(255 , 255 , 255)&quot;&gt;Waiting for block.timestamp to exceed Event N timestamp&lt;/span&gt;" style="rounded=0;whiteSpace=wrap;html=1;" parent="1" vertex="1">
                    <mxGeometry x="480" y="950" width="180" height="40" as="geometry"/>
                </mxCell>
                <mxCell id="TJnBre5quvr3i6Oq31VL-11" value="1. Creation" style="text;strokeColor=none;fillColor=none;html=1;fontSize=24;fontStyle=1;verticalAlign=middle;align=left;labelBackgroundColor=#FFFFFF;" parent="1" vertex="1">
                    <mxGeometry x="170" y="1410" width="100" height="40" as="geometry"/>
                </mxCell>
                <mxCell id="TJnBre5quvr3i6Oq31VL-12" value="" style="endArrow=none;html=1;rounded=0;fontSize=30;" parent="1" edge="1">
                    <mxGeometry width="50" height="50" relative="1" as="geometry">
                        <mxPoint x="10" y="1320" as="sourcePoint"/>
                        <mxPoint x="840" y="1320" as="targetPoint"/>
                    </mxGeometry>
                </mxCell>
                <mxCell id="TJnBre5quvr3i6Oq31VL-21" value="2. Fund link" style="text;strokeColor=none;fillColor=none;html=1;fontSize=24;fontStyle=1;verticalAlign=middle;align=left;labelBackgroundColor=#FFFFFF;" parent="1" vertex="1">
                    <mxGeometry x="170" y="1870" width="100" height="40" as="geometry"/>
                </mxCell>
                <mxCell id="TJnBre5quvr3i6Oq31VL-52" style="edgeStyle=orthogonalEdgeStyle;rounded=0;orthogonalLoop=1;jettySize=auto;html=1;entryX=0;entryY=0.5;entryDx=0;entryDy=0;fontSize=15;" parent="1" source="TJnBre5quvr3i6Oq31VL-23" target="TJnBre5quvr3i6Oq31VL-48" edge="1">
                    <mxGeometry relative="1" as="geometry">
                        <Array as="points">
                            <mxPoint x="305" y="1930"/>
                            <mxPoint x="305" y="2225"/>
                        </Array>
                    </mxGeometry>
                </mxCell>
                <mxCell id="TJnBre5quvr3i6Oq31VL-53" style="edgeStyle=orthogonalEdgeStyle;rounded=0;orthogonalLoop=1;jettySize=auto;html=1;exitX=0.5;exitY=1;exitDx=0;exitDy=0;fontSize=12;startArrow=none;" parent="1" source="TJnBre5quvr3i6Oq31VL-56" target="TJnBre5quvr3i6Oq31VL-47" edge="1">
                    <mxGeometry relative="1" as="geometry"/>
                </mxCell>
                <mxCell id="TJnBre5quvr3i6Oq31VL-23" value="Anyone" style="ellipse;whiteSpace=wrap;html=1;" parent="1" vertex="1">
                    <mxGeometry x="365" y="1890" width="120" height="80" as="geometry"/>
                </mxCell>
                <mxCell id="TJnBre5quvr3i6Oq31VL-26" value="" style="endArrow=classic;html=1;rounded=0;fontSize=30;entryX=1;entryY=0.5;entryDx=0;entryDy=0;exitX=1;exitY=0.5;exitDx=0;exitDy=0;" parent="1" source="TJnBre5quvr3i6Oq31VL-48" target="TJnBre5quvr3i6Oq31VL-23" edge="1">
                    <mxGeometry width="50" height="50" relative="1" as="geometry">
                        <mxPoint x="508" y="2050" as="sourcePoint"/>
                        <mxPoint x="500" y="1970" as="targetPoint"/>
                        <Array as="points">
                            <mxPoint x="550" y="2225"/>
                            <mxPoint x="550" y="2040"/>
                            <mxPoint x="550" y="1930"/>
                        </Array>
                    </mxGeometry>
                </mxCell>
                <mxCell id="TJnBre5quvr3i6Oq31VL-39" value="1" style="edgeLabel;html=1;align=center;verticalAlign=middle;resizable=0;points=[];fontSize=15;fontStyle=1" parent="1" vertex="1" connectable="0">
                    <mxGeometry x="340" y="1930" as="geometry"/>
                </mxCell>
                <mxCell id="TJnBre5quvr3i6Oq31VL-42" value="2" style="edgeLabel;html=1;align=center;verticalAlign=middle;resizable=0;points=[];fontSize=15;fontStyle=1" parent="1" vertex="1" connectable="0">
                    <mxGeometry x="550" y="2010" as="geometry">
                        <mxPoint x="-1" y="-5" as="offset"/>
                    </mxGeometry>
                </mxCell>
                <mxCell id="TJnBre5quvr3i6Oq31VL-47" value="Lottery" style="swimlane;fontStyle=0;childLayout=stackLayout;horizontal=1;startSize=30;horizontalStack=0;resizeParent=1;resizeParentMax=0;resizeLast=0;collapsible=1;marginBottom=0;labelBackgroundColor=#FFFFFF;fontSize=12;strokeWidth=1;" parent="1" vertex="1">
                    <mxGeometry x="325" y="2180" width="200" height="60" as="geometry"/>
                </mxCell>
                <mxCell id="TJnBre5quvr3i6Oq31VL-48" value="getLINKAmountRequired()" style="text;strokeColor=none;fillColor=none;align=left;verticalAlign=middle;spacingLeft=4;spacingRight=4;overflow=hidden;points=[[0,0.5],[1,0.5]];portConstraint=eastwest;rotatable=0;labelBackgroundColor=#FFFFFF;fontSize=12;" parent="TJnBre5quvr3i6Oq31VL-47" vertex="1">
                    <mxGeometry y="30" width="200" height="30" as="geometry"/>
                </mxCell>
                <mxCell id="TJnBre5quvr3i6Oq31VL-56" value="LINK&lt;br&gt;transfer()" style="rounded=0;whiteSpace=wrap;html=1;labelBackgroundColor=#FFFFFF;fontSize=11;strokeWidth=1;" parent="1" vertex="1">
                    <mxGeometry x="365.5" y="2050" width="120" height="60" as="geometry"/>
                </mxCell>
                <mxCell id="TJnBre5quvr3i6Oq31VL-57" value="" style="edgeStyle=orthogonalEdgeStyle;rounded=0;orthogonalLoop=1;jettySize=auto;html=1;exitX=0.5;exitY=1;exitDx=0;exitDy=0;fontSize=12;endArrow=none;" parent="1" source="TJnBre5quvr3i6Oq31VL-23" target="TJnBre5quvr3i6Oq31VL-56" edge="1">
                    <mxGeometry relative="1" as="geometry">
                        <mxPoint x="425" y="1970" as="sourcePoint"/>
                        <mxPoint x="425" y="2180" as="targetPoint"/>
                    </mxGeometry>
                </mxCell>
                <mxCell id="TJnBre5quvr3i6Oq31VL-60" value="3&lt;br&gt;&lt;font style=&quot;font-weight: normal ; font-size: 11px&quot;&gt;Blockchain tx&lt;/font&gt;" style="edgeLabel;html=1;align=center;verticalAlign=middle;resizable=0;points=[];fontSize=15;fontStyle=1" parent="1" vertex="1" connectable="0">
                    <mxGeometry x="430" y="1990" as="geometry">
                        <mxPoint x="-6" y="10" as="offset"/>
                    </mxGeometry>
                </mxCell>
                <mxCell id="TJnBre5quvr3i6Oq31VL-61" value="Creates lottery ERC721 token" style="rounded=0;whiteSpace=wrap;html=1;" parent="1" vertex="1">
                    <mxGeometry x="560" y="1590" width="130" height="60" as="geometry"/>
                </mxCell>
                <mxCell id="TJnBre5quvr3i6Oq31VL-63" value="Saves Chainlink PriceConsumer" style="rounded=0;whiteSpace=wrap;html=1;" parent="1" vertex="1">
                    <mxGeometry x="175" y="1590" width="120" height="60" as="geometry"/>
                </mxCell>
                <mxCell id="TJnBre5quvr3i6Oq31VL-65" value="Init Chainlink VRFConsumer" style="rounded=0;whiteSpace=wrap;html=1;" parent="1" vertex="1">
                    <mxGeometry x="365" y="1710" width="120" height="60" as="geometry"/>
                </mxCell>
                <mxCell id="TJnBre5quvr3i6Oq31VL-68" value="&lt;font style=&quot;font-size: 20px&quot;&gt;State:&amp;nbsp;&lt;span style=&quot;font-weight: normal&quot;&gt;WaitingForLINK&amp;nbsp;&lt;/span&gt;&lt;/font&gt;" style="text;strokeColor=none;fillColor=none;html=1;fontSize=24;fontStyle=1;verticalAlign=middle;align=center;rounded=0;shadow=0;glass=0;labelBackgroundColor=#FFFFFF;sketch=0;" parent="1" vertex="1">
                    <mxGeometry x="375" y="1810" width="100" height="40" as="geometry"/>
                </mxCell>
                <mxCell id="TJnBre5quvr3i6Oq31VL-86" style="edgeStyle=orthogonalEdgeStyle;rounded=0;orthogonalLoop=1;jettySize=auto;html=1;fontSize=20;" parent="1" source="TJnBre5quvr3i6Oq31VL-69" target="TJnBre5quvr3i6Oq31VL-83" edge="1">
                    <mxGeometry relative="1" as="geometry"/>
                </mxCell>
                <mxCell id="TJnBre5quvr3i6Oq31VL-87" value="&lt;font style=&quot;font-size: 12px&quot;&gt;&lt;b&gt;Participation period&lt;/b&gt;&lt;br&gt;Start timestamp exceeded&lt;br style=&quot;font-size: 12px&quot;&gt;&lt;/font&gt;" style="edgeLabel;html=1;align=center;verticalAlign=middle;resizable=0;points=[];fontSize=12;" parent="TJnBre5quvr3i6Oq31VL-86" vertex="1" connectable="0">
                    <mxGeometry x="-0.0952" relative="1" as="geometry">
                        <mxPoint as="offset"/>
                    </mxGeometry>
                </mxCell>
                <mxCell id="TJnBre5quvr3i6Oq31VL-69" value="&lt;font style=&quot;font-size: 20px&quot;&gt;State:&amp;nbsp;&lt;/font&gt;&lt;span style=&quot;font-size: 20px ; font-weight: 400&quot;&gt;WaitingForParticipationPeriod&lt;/span&gt;" style="text;strokeColor=none;fillColor=none;html=1;fontSize=24;fontStyle=1;verticalAlign=middle;align=center;rounded=0;shadow=0;glass=0;labelBackgroundColor=#FFFFFF;sketch=0;" parent="1" vertex="1">
                    <mxGeometry x="375" y="2290" width="100" height="40" as="geometry"/>
                </mxCell>
                <mxCell id="TJnBre5quvr3i6Oq31VL-70" value="" style="rounded=0;whiteSpace=wrap;html=1;labelBackgroundColor=#FFFFFF;fontSize=15;strokeWidth=1;" parent="1" vertex="1">
                    <mxGeometry x="160" y="2460" width="540" height="270" as="geometry"/>
                </mxCell>
                <mxCell id="TJnBre5quvr3i6Oq31VL-71" value="3. Participate" style="text;strokeColor=none;fillColor=none;html=1;fontSize=24;fontStyle=1;verticalAlign=middle;align=left;labelBackgroundColor=#FFFFFF;" parent="1" vertex="1">
                    <mxGeometry x="165" y="2460" width="100" height="40" as="geometry"/>
                </mxCell>
                <mxCell id="TJnBre5quvr3i6Oq31VL-72" style="edgeStyle=orthogonalEdgeStyle;rounded=0;orthogonalLoop=1;jettySize=auto;html=1;entryX=0;entryY=0.5;entryDx=0;entryDy=0;fontSize=15;" parent="1" source="TJnBre5quvr3i6Oq31VL-74" target="TJnBre5quvr3i6Oq31VL-79" edge="1">
                    <mxGeometry relative="1" as="geometry">
                        <Array as="points">
                            <mxPoint x="399.94" y="2600"/>
                            <mxPoint x="279.94" y="2600"/>
                            <mxPoint x="279.94" y="2665"/>
                        </Array>
                    </mxGeometry>
                </mxCell>
                <mxCell id="TJnBre5quvr3i6Oq31VL-74" value="Anyone" style="ellipse;whiteSpace=wrap;html=1;" parent="1" vertex="1">
                    <mxGeometry x="339.94" y="2500" width="120" height="80" as="geometry"/>
                </mxCell>
                <mxCell id="TJnBre5quvr3i6Oq31VL-76" value="1" style="edgeLabel;html=1;align=center;verticalAlign=middle;resizable=0;points=[];fontSize=15;fontStyle=1" parent="1" vertex="1" connectable="0">
                    <mxGeometry x="379.94" y="2600" as="geometry">
                        <mxPoint x="4" as="offset"/>
                    </mxGeometry>
                </mxCell>
                <mxCell id="TJnBre5quvr3i6Oq31VL-78" value="Lottery" style="swimlane;fontStyle=0;childLayout=stackLayout;horizontal=1;startSize=30;horizontalStack=0;resizeParent=1;resizeParentMax=0;resizeLast=0;collapsible=1;marginBottom=0;labelBackgroundColor=#FFFFFF;fontSize=12;strokeWidth=1;" parent="1" vertex="1">
                    <mxGeometry x="299.94" y="2620" width="200" height="90" as="geometry">
                        <mxRectangle x="320" y="2740" width="70" height="30" as="alternateBounds"/>
                    </mxGeometry>
                </mxCell>
                <mxCell id="TJnBre5quvr3i6Oq31VL-79" value="participate(TokenInfo)" style="text;strokeColor=none;fillColor=none;align=left;verticalAlign=middle;spacingLeft=4;spacingRight=4;overflow=hidden;points=[[0,0.5],[1,0.5]];portConstraint=eastwest;rotatable=0;labelBackgroundColor=#FFFFFF;fontSize=12;" parent="TJnBre5quvr3i6Oq31VL-78" vertex="1">
                    <mxGeometry y="30" width="200" height="30" as="geometry"/>
                </mxCell>
                <mxCell id="TJnBre5quvr3i6Oq31VL-98" value="LotteryToken.mint(TokenInfo)" style="text;strokeColor=none;fillColor=none;align=left;verticalAlign=middle;spacingLeft=4;spacingRight=4;overflow=hidden;points=[[0,0.5],[1,0.5]];portConstraint=eastwest;rotatable=0;labelBackgroundColor=#FFFFFF;fontSize=12;" parent="TJnBre5quvr3i6Oq31VL-78" vertex="1">
                    <mxGeometry y="60" width="200" height="30" as="geometry"/>
                </mxCell>
                <mxCell id="TJnBre5quvr3i6Oq31VL-83" value="&lt;font style=&quot;font-size: 20px&quot;&gt;State:&amp;nbsp;&lt;/font&gt;&lt;span style=&quot;font-size: 20px ; font-weight: 400&quot;&gt;OngoingParticipationPeriod&lt;/span&gt;" style="text;strokeColor=none;fillColor=none;html=1;fontSize=24;fontStyle=1;verticalAlign=middle;align=center;rounded=0;shadow=0;glass=0;labelBackgroundColor=#FFFFFF;sketch=0;" parent="1" vertex="1">
                    <mxGeometry x="375" y="2400" width="100" height="40" as="geometry"/>
                </mxCell>
                <mxCell id="TJnBre5quvr3i6Oq31VL-99" style="edgeStyle=orthogonalEdgeStyle;rounded=0;orthogonalLoop=1;jettySize=auto;html=1;entryX=1;entryY=0.5;entryDx=0;entryDy=0;fontSize=12;" parent="1" source="TJnBre5quvr3i6Oq31VL-90" target="TJnBre5quvr3i6Oq31VL-98" edge="1">
                    <mxGeometry relative="1" as="geometry">
                        <Array as="points">
                            <mxPoint x="612.94" y="2695"/>
                        </Array>
                    </mxGeometry>
                </mxCell>
                <mxCell id="TJnBre5quvr3i6Oq31VL-90" value="Verify participation price with Chainlink" style="rounded=0;whiteSpace=wrap;html=1;shadow=0;glass=0;labelBackgroundColor=#FFFFFF;sketch=0;fontSize=12;strokeColor=default;strokeWidth=1;fillColor=none;" parent="1" vertex="1">
                    <mxGeometry x="552.44" y="2620" width="120" height="60" as="geometry"/>
                </mxCell>
                <mxCell id="TJnBre5quvr3i6Oq31VL-91" style="edgeStyle=orthogonalEdgeStyle;rounded=0;orthogonalLoop=1;jettySize=auto;html=1;entryX=0;entryY=0.75;entryDx=0;entryDy=0;fontSize=12;" parent="1" source="TJnBre5quvr3i6Oq31VL-79" target="TJnBre5quvr3i6Oq31VL-90" edge="1">
                    <mxGeometry relative="1" as="geometry"/>
                </mxCell>
                <mxCell id="TJnBre5quvr3i6Oq31VL-100" style="edgeStyle=orthogonalEdgeStyle;rounded=0;orthogonalLoop=1;jettySize=auto;html=1;entryX=0;entryY=0.5;entryDx=0;entryDy=0;fontSize=12;" parent="1" source="TJnBre5quvr3i6Oq31VL-98" target="TJnBre5quvr3i6Oq31VL-74" edge="1">
                    <mxGeometry relative="1" as="geometry">
                        <Array as="points">
                            <mxPoint x="249.94" y="2695"/>
                            <mxPoint x="249.94" y="2540"/>
                        </Array>
                    </mxGeometry>
                </mxCell>
                <mxCell id="TJnBre5quvr3i6Oq31VL-101" value="2" style="edgeLabel;html=1;align=center;verticalAlign=middle;resizable=0;points=[];fontSize=15;fontStyle=1" parent="1" vertex="1" connectable="0">
                    <mxGeometry x="509.94" y="2665" as="geometry">
                        <mxPoint x="4" as="offset"/>
                    </mxGeometry>
                </mxCell>
                <mxCell id="TJnBre5quvr3i6Oq31VL-102" value="3" style="edgeLabel;html=1;align=center;verticalAlign=middle;resizable=0;points=[];fontSize=15;fontStyle=1" parent="1" vertex="1" connectable="0">
                    <mxGeometry x="529.94" y="2690" as="geometry">
                        <mxPoint x="4" as="offset"/>
                    </mxGeometry>
                </mxCell>
                <mxCell id="TJnBre5quvr3i6Oq31VL-103" value="4" style="edgeLabel;html=1;align=center;verticalAlign=middle;resizable=0;points=[];fontSize=15;fontStyle=1" parent="1" vertex="1" connectable="0">
                    <mxGeometry x="274.94" y="2690" as="geometry">
                        <mxPoint x="-4" as="offset"/>
                    </mxGeometry>
                </mxCell>
                <mxCell id="TJnBre5quvr3i6Oq31VL-104" value="1" style="edgeLabel;html=1;align=center;verticalAlign=middle;resizable=0;points=[];fontSize=15;fontStyle=1" parent="1" vertex="1" connectable="0">
                    <mxGeometry x="425" y="1530" as="geometry"/>
                </mxCell>
                <mxCell id="TJnBre5quvr3i6Oq31VL-105" value="Blockchain TX" style="edgeLabel;html=1;align=center;verticalAlign=middle;resizable=0;points=[];" parent="1" vertex="1" connectable="0">
                    <mxGeometry x="325" y="2600" as="geometry"/>
                </mxCell>
                <mxCell id="TJnBre5quvr3i6Oq31VL-111" style="edgeStyle=orthogonalEdgeStyle;rounded=0;orthogonalLoop=1;jettySize=auto;html=1;fontSize=20;" parent="1" target="TJnBre5quvr3i6Oq31VL-113" edge="1">
                    <mxGeometry relative="1" as="geometry">
                        <mxPoint x="425" y="2750" as="sourcePoint"/>
                    </mxGeometry>
                </mxCell>
                <mxCell id="TJnBre5quvr3i6Oq31VL-112" value="&lt;font style=&quot;font-size: 12px&quot;&gt;&lt;b&gt;Preparation period&lt;/b&gt;&lt;br&gt;Start timestamp exceeded&lt;br style=&quot;font-size: 12px&quot;&gt;&lt;/font&gt;" style="edgeLabel;html=1;align=center;verticalAlign=middle;resizable=0;points=[];fontSize=12;" parent="TJnBre5quvr3i6Oq31VL-111" vertex="1" connectable="0">
                    <mxGeometry x="-0.0952" relative="1" as="geometry">
                        <mxPoint as="offset"/>
                    </mxGeometry>
                </mxCell>
                <mxCell id="TJnBre5quvr3i6Oq31VL-113" value="&lt;font style=&quot;font-size: 20px&quot;&gt;State:&amp;nbsp;&lt;/font&gt;&lt;span style=&quot;font-size: 20px ; font-weight: 400&quot;&gt;OngoingPreparationPeriod&lt;/span&gt;" style="text;strokeColor=none;fillColor=none;html=1;fontSize=24;fontStyle=1;verticalAlign=middle;align=center;rounded=0;shadow=0;glass=0;labelBackgroundColor=#FFFFFF;sketch=0;" parent="1" vertex="1">
                    <mxGeometry x="375" y="2820" width="100" height="40" as="geometry"/>
                </mxCell>
                <mxCell id="TJnBre5quvr3i6Oq31VL-115" value="" style="rounded=0;whiteSpace=wrap;html=1;labelBackgroundColor=#FFFFFF;fontSize=15;strokeWidth=1;" parent="1" vertex="1">
                    <mxGeometry x="160" y="2870" width="540" height="40" as="geometry"/>
                </mxCell>
                <mxCell id="TJnBre5quvr3i6Oq31VL-116" value="4. Get Token boosts (not in V1)" style="text;strokeColor=none;fillColor=none;html=1;fontSize=24;fontStyle=1;verticalAlign=middle;align=left;labelBackgroundColor=#FFFFFF;" parent="1" vertex="1">
                    <mxGeometry x="165" y="2870" width="100" height="40" as="geometry"/>
                </mxCell>
                <mxCell id="TJnBre5quvr3i6Oq31VL-117" style="edgeStyle=orthogonalEdgeStyle;rounded=0;orthogonalLoop=1;jettySize=auto;html=1;fontSize=20;" parent="1" target="TJnBre5quvr3i6Oq31VL-119" edge="1">
                    <mxGeometry relative="1" as="geometry">
                        <mxPoint x="425" y="2930" as="sourcePoint"/>
                    </mxGeometry>
                </mxCell>
                <mxCell id="TJnBre5quvr3i6Oq31VL-118" value="&lt;font style=&quot;font-size: 12px&quot;&gt;&lt;b&gt;Preparation period&lt;/b&gt;&lt;br&gt;End timestamp exceeded&lt;br style=&quot;font-size: 12px&quot;&gt;&lt;/font&gt;" style="edgeLabel;html=1;align=center;verticalAlign=middle;resizable=0;points=[];fontSize=12;" parent="TJnBre5quvr3i6Oq31VL-117" vertex="1" connectable="0">
                    <mxGeometry x="-0.0952" relative="1" as="geometry">
                        <mxPoint as="offset"/>
                    </mxGeometry>
                </mxCell>
                <mxCell id="TJnBre5quvr3i6Oq31VL-119" value="&lt;font style=&quot;font-size: 20px&quot;&gt;State:&amp;nbsp;&lt;/font&gt;&lt;span style=&quot;font-size: 20px ; font-weight: 400&quot;&gt;WaitingForNextEvent&lt;/span&gt;" style="text;strokeColor=none;fillColor=none;html=1;fontSize=24;fontStyle=1;verticalAlign=middle;align=center;rounded=0;shadow=0;glass=0;labelBackgroundColor=#FFFFFF;sketch=0;" parent="1" vertex="1">
                    <mxGeometry x="375" y="3000" width="100" height="40" as="geometry"/>
                </mxCell>
                <mxCell id="TJnBre5quvr3i6Oq31VL-121" value="5. Event" style="text;strokeColor=none;fillColor=none;html=1;fontSize=24;fontStyle=1;verticalAlign=middle;align=left;labelBackgroundColor=#FFFFFF;" parent="1" vertex="1">
                    <mxGeometry x="165" y="3140" width="100" height="40" as="geometry"/>
                </mxCell>
                <mxCell id="TJnBre5quvr3i6Oq31VL-122" style="edgeStyle=orthogonalEdgeStyle;rounded=0;orthogonalLoop=1;jettySize=auto;html=1;fontSize=20;" parent="1" edge="1">
                    <mxGeometry relative="1" as="geometry">
                        <mxPoint x="425" y="3050" as="sourcePoint"/>
                        <mxPoint x="425" y="3120" as="targetPoint"/>
                    </mxGeometry>
                </mxCell>
                <mxCell id="TJnBre5quvr3i6Oq31VL-123" value="&lt;font style=&quot;font-size: 12px&quot;&gt;Event timestamp exceeded&lt;br style=&quot;font-size: 12px&quot;&gt;&lt;/font&gt;" style="edgeLabel;html=1;align=center;verticalAlign=middle;resizable=0;points=[];fontSize=12;" parent="TJnBre5quvr3i6Oq31VL-122" vertex="1" connectable="0">
                    <mxGeometry x="-0.0952" relative="1" as="geometry">
                        <mxPoint as="offset"/>
                    </mxGeometry>
                </mxCell>
                <mxCell id="TJnBre5quvr3i6Oq31VL-126" style="edgeStyle=orthogonalEdgeStyle;rounded=0;orthogonalLoop=1;jettySize=auto;html=1;fontSize=12;exitX=0;exitY=0.5;exitDx=0;exitDy=0;" parent="1" source="TJnBre5quvr3i6Oq31VL-125" edge="1">
                    <mxGeometry relative="1" as="geometry">
                        <mxPoint x="290" y="3018.3333333333335" as="targetPoint"/>
                        <Array as="points">
                            <mxPoint x="120" y="3570"/>
                            <mxPoint x="120" y="3018"/>
                        </Array>
                    </mxGeometry>
                </mxCell>
                <mxCell id="TJnBre5quvr3i6Oq31VL-164" style="edgeStyle=orthogonalEdgeStyle;rounded=0;orthogonalLoop=1;jettySize=auto;html=1;fontSize=12;dashed=1;entryX=0.5;entryY=0;entryDx=0;entryDy=0;" parent="1" source="TJnBre5quvr3i6Oq31VL-125" target="TJnBre5quvr3i6Oq31VL-156" edge="1">
                    <mxGeometry relative="1" as="geometry">
                        <mxPoint x="430" y="3680" as="targetPoint"/>
                    </mxGeometry>
                </mxCell>
                <mxCell id="TJnBre5quvr3i6Oq31VL-125" value="Remaining events ?" style="rounded=0;whiteSpace=wrap;html=1;shadow=0;glass=0;labelBackgroundColor=#FFFFFF;sketch=0;fontSize=12;strokeColor=default;strokeWidth=1;fillColor=none;" parent="1" vertex="1">
                    <mxGeometry x="370" y="3540" width="120" height="60" as="geometry"/>
                </mxCell>
                <mxCell id="TJnBre5quvr3i6Oq31VL-128" value="YES" style="edgeLabel;html=1;align=center;verticalAlign=middle;resizable=0;points=[];" parent="1" vertex="1" connectable="0">
                    <mxGeometry x="337.5" y="3570" as="geometry"/>
                </mxCell>
                <mxCell id="TJnBre5quvr3i6Oq31VL-130" value="NO" style="edgeLabel;html=1;align=center;verticalAlign=middle;resizable=0;points=[];" parent="1" vertex="1" connectable="0">
                    <mxGeometry x="430" y="3620" as="geometry"/>
                </mxCell>
                <mxCell id="TJnBre5quvr3i6Oq31VL-131" value="Lottery" style="swimlane;fontStyle=0;childLayout=stackLayout;horizontal=1;startSize=30;horizontalStack=0;resizeParent=1;resizeParentMax=0;resizeLast=0;collapsible=1;marginBottom=0;labelBackgroundColor=#FFFFFF;fontSize=12;strokeWidth=1;" parent="1" vertex="1">
                    <mxGeometry x="220" y="3260" width="200" height="90" as="geometry">
                        <mxRectangle x="320" y="2740" width="70" height="30" as="alternateBounds"/>
                    </mxGeometry>
                </mxCell>
                <mxCell id="TJnBre5quvr3i6Oq31VL-132" value="triggerNextEvent()" style="text;strokeColor=none;fillColor=none;align=left;verticalAlign=middle;spacingLeft=4;spacingRight=4;overflow=hidden;points=[[0,0.5],[1,0.5]];portConstraint=eastwest;rotatable=0;labelBackgroundColor=#FFFFFF;fontSize=12;" parent="TJnBre5quvr3i6Oq31VL-131" vertex="1">
                    <mxGeometry y="30" width="200" height="30" as="geometry"/>
                </mxCell>
                <mxCell id="TJnBre5quvr3i6Oq31VL-137" value="fulfillRandomness()" style="text;strokeColor=none;fillColor=none;align=left;verticalAlign=middle;spacingLeft=4;spacingRight=4;overflow=hidden;points=[[0,0.5],[1,0.5]];portConstraint=eastwest;rotatable=0;labelBackgroundColor=#FFFFFF;fontSize=12;" parent="TJnBre5quvr3i6Oq31VL-131" vertex="1">
                    <mxGeometry y="60" width="200" height="30" as="geometry"/>
                </mxCell>
                <mxCell id="TJnBre5quvr3i6Oq31VL-139" style="edgeStyle=orthogonalEdgeStyle;rounded=0;orthogonalLoop=1;jettySize=auto;html=1;entryX=1;entryY=0.5;entryDx=0;entryDy=0;fontSize=12;" parent="1" source="TJnBre5quvr3i6Oq31VL-134" target="TJnBre5quvr3i6Oq31VL-137" edge="1">
                    <mxGeometry relative="1" as="geometry"/>
                </mxCell>
                <mxCell id="TJnBre5quvr3i6Oq31VL-167" value="&lt;span style=&quot;font-size: 11px&quot;&gt;Blockchain tx&lt;/span&gt;" style="edgeLabel;html=1;align=center;verticalAlign=middle;resizable=0;points=[];fontSize=12;" parent="TJnBre5quvr3i6Oq31VL-139" vertex="1" connectable="0">
                    <mxGeometry x="-0.0659" y="1" relative="1" as="geometry">
                        <mxPoint x="-2" y="-1" as="offset"/>
                    </mxGeometry>
                </mxCell>
                <mxCell id="TJnBre5quvr3i6Oq31VL-134" value="Request randomness from Chainlink VRFConsumer" style="rounded=0;whiteSpace=wrap;html=1;shadow=0;glass=0;labelBackgroundColor=#FFFFFF;sketch=0;fontSize=12;strokeColor=default;strokeWidth=1;fillColor=none;" parent="1" vertex="1">
                    <mxGeometry x="480" y="3250" width="174" height="60" as="geometry"/>
                </mxCell>
                <mxCell id="TJnBre5quvr3i6Oq31VL-135" style="edgeStyle=orthogonalEdgeStyle;rounded=0;orthogonalLoop=1;jettySize=auto;html=1;exitX=1;exitY=0.5;exitDx=0;exitDy=0;entryX=0;entryY=0.5;entryDx=0;entryDy=0;fontSize=12;" parent="1" source="TJnBre5quvr3i6Oq31VL-132" target="TJnBre5quvr3i6Oq31VL-134" edge="1">
                    <mxGeometry relative="1" as="geometry">
                        <Array as="points">
                            <mxPoint x="450" y="3305"/>
                            <mxPoint x="450" y="3280"/>
                        </Array>
                    </mxGeometry>
                </mxCell>
                <mxCell id="TJnBre5quvr3i6Oq31VL-140" value="Performs participants pool halving and random picking of participants" style="rounded=0;whiteSpace=wrap;html=1;shadow=0;glass=0;labelBackgroundColor=#FFFFFF;sketch=0;fontSize=12;strokeColor=default;strokeWidth=1;fillColor=none;" parent="1" vertex="1">
                    <mxGeometry x="220" y="3370" width="190" height="60" as="geometry"/>
                </mxCell>
                <mxCell id="TJnBre5quvr3i6Oq31VL-141" value="1" style="edgeLabel;html=1;align=center;verticalAlign=middle;resizable=0;points=[];fontSize=15;fontStyle=1" parent="1" vertex="1" connectable="0">
                    <mxGeometry x="195" y="3280" as="geometry">
                        <mxPoint x="-2" y="-4" as="offset"/>
                    </mxGeometry>
                </mxCell>
                <mxCell id="TJnBre5quvr3i6Oq31VL-142" value="2" style="edgeLabel;html=1;align=center;verticalAlign=middle;resizable=0;points=[];fontSize=15;fontStyle=1" parent="1" vertex="1" connectable="0">
                    <mxGeometry x="450" y="3305" as="geometry">
                        <mxPoint x="-2" y="-4" as="offset"/>
                    </mxGeometry>
                </mxCell>
                <mxCell id="TJnBre5quvr3i6Oq31VL-143" value="3" style="edgeLabel;html=1;align=center;verticalAlign=middle;resizable=0;points=[];fontSize=15;fontStyle=1" parent="1" vertex="1" connectable="0">
                    <mxGeometry x="567" y="3330" as="geometry">
                        <mxPoint x="-2" y="-4" as="offset"/>
                    </mxGeometry>
                </mxCell>
                <mxCell id="TJnBre5quvr3i6Oq31VL-144" style="edgeStyle=orthogonalEdgeStyle;rounded=0;orthogonalLoop=1;jettySize=auto;html=1;entryX=0;entryY=0.5;entryDx=0;entryDy=0;fontSize=12;" parent="1" source="TJnBre5quvr3i6Oq31VL-137" target="TJnBre5quvr3i6Oq31VL-140" edge="1">
                    <mxGeometry relative="1" as="geometry">
                        <Array as="points">
                            <mxPoint x="190" y="3335"/>
                            <mxPoint x="190" y="3400"/>
                        </Array>
                    </mxGeometry>
                </mxCell>
                <mxCell id="TJnBre5quvr3i6Oq31VL-145" value="4" style="edgeLabel;html=1;align=center;verticalAlign=middle;resizable=0;points=[];fontSize=15;fontStyle=1" parent="1" vertex="1" connectable="0">
                    <mxGeometry x="195" y="3370" as="geometry">
                        <mxPoint x="-2" y="-4" as="offset"/>
                    </mxGeometry>
                </mxCell>
                <mxCell id="TJnBre5quvr3i6Oq31VL-151" value="6. Completion" style="text;strokeColor=none;fillColor=none;html=1;fontSize=24;fontStyle=1;verticalAlign=middle;align=left;labelBackgroundColor=#FFFFFF;" parent="1" vertex="1">
                    <mxGeometry x="165" y="3740" width="100" height="40" as="geometry"/>
                </mxCell>
                <mxCell id="TJnBre5quvr3i6Oq31VL-171" style="edgeStyle=orthogonalEdgeStyle;rounded=0;orthogonalLoop=1;jettySize=auto;html=1;entryX=0.5;entryY=0;entryDx=0;entryDy=0;fontSize=12;" parent="1" source="TJnBre5quvr3i6Oq31VL-156" target="TJnBre5quvr3i6Oq31VL-170" edge="1">
                    <mxGeometry relative="1" as="geometry"/>
                </mxCell>
                <mxCell id="TJnBre5quvr3i6Oq31VL-156" value="Release funds" style="rounded=0;whiteSpace=wrap;html=1;shadow=0;glass=0;labelBackgroundColor=#FFFFFF;sketch=0;fontSize=12;strokeColor=default;strokeWidth=1;fillColor=none;" parent="1" vertex="1">
                    <mxGeometry x="366.5" y="3800" width="127" height="40" as="geometry"/>
                </mxCell>
                <mxCell id="TJnBre5quvr3i6Oq31VL-165" value="5" style="edgeLabel;html=1;align=center;verticalAlign=middle;resizable=0;points=[];fontSize=15;fontStyle=1" parent="1" vertex="1" connectable="0">
                    <mxGeometry x="425" y="3440" as="geometry">
                        <mxPoint x="4" y="10" as="offset"/>
                    </mxGeometry>
                </mxCell>
                <mxCell id="TJnBre5quvr3i6Oq31VL-166" value="6" style="edgeLabel;html=1;align=center;verticalAlign=middle;resizable=0;points=[];fontSize=15;fontStyle=1" parent="1" vertex="1" connectable="0">
                    <mxGeometry x="425" y="3700" as="geometry">
                        <mxPoint x="4" y="10" as="offset"/>
                    </mxGeometry>
                </mxCell>
                <mxCell id="TJnBre5quvr3i6Oq31VL-169" value="&lt;font style=&quot;font-size: 20px&quot;&gt;State:&amp;nbsp;&lt;/font&gt;&lt;span style=&quot;font-size: 20px ; font-weight: 400&quot;&gt;WaitingForFundsRelease&lt;/span&gt;" style="text;strokeColor=none;fillColor=none;html=1;fontSize=24;fontStyle=1;verticalAlign=middle;align=center;rounded=0;shadow=0;glass=0;labelBackgroundColor=#FFFFFF;sketch=0;" parent="1" vertex="1">
                    <mxGeometry x="380" y="3650" width="100" height="40" as="geometry"/>
                </mxCell>
                <mxCell id="TJnBre5quvr3i6Oq31VL-170" value="Pick winners" style="rounded=0;whiteSpace=wrap;html=1;shadow=0;glass=0;labelBackgroundColor=#FFFFFF;sketch=0;fontSize=12;strokeColor=default;strokeWidth=1;fillColor=none;" parent="1" vertex="1">
                    <mxGeometry x="366.5" y="3880" width="127" height="40" as="geometry"/>
                </mxCell>
                <mxCell id="TJnBre5quvr3i6Oq31VL-172" value="&lt;font style=&quot;font-size: 20px&quot;&gt;State:&amp;nbsp;&lt;/font&gt;&lt;span style=&quot;font-size: 20px ; font-weight: 400&quot;&gt;Complete&lt;/span&gt;" style="text;strokeColor=none;fillColor=none;html=1;fontSize=24;fontStyle=1;verticalAlign=middle;align=center;rounded=0;shadow=0;glass=0;labelBackgroundColor=#FFFFFF;sketch=0;" parent="1" vertex="1">
                    <mxGeometry x="380" y="3960" width="100" height="40" as="geometry"/>
                </mxCell>
                <mxCell id="TJnBre5quvr3i6Oq31VL-173" value="&lt;font style=&quot;font-size: 30px&quot;&gt;LotteryFlow&lt;/font&gt;" style="text;strokeColor=none;fillColor=none;html=1;fontSize=24;fontStyle=1;verticalAlign=middle;align=left;rounded=1;strokeWidth=9;" parent="1" vertex="1">
                    <mxGeometry x="15" y="10" width="205" height="40" as="geometry"/>
                </mxCell>
                <mxCell id="TJnBre5quvr3i6Oq31VL-174" value="" style="endArrow=none;html=1;rounded=0;fontSize=30;" parent="1" edge="1">
                    <mxGeometry width="50" height="50" relative="1" as="geometry">
                        <mxPoint x="10" y="60" as="sourcePoint"/>
                        <mxPoint x="840" y="60" as="targetPoint"/>
                    </mxGeometry>
                </mxCell>
            </root>
        </mxGraphModel>
    </diagram>
</mxfile>